<svg height="35" width="35" xmlns="http://www.w3.org/2000/svg" viewBox="0 0 512 512"><path d="M386.2 79l-49.8 49.8 4.6 4.8c-3.3 2.7-6.6 5.3-9.9 7.6a78 78 0 0 1-13.6 8.2c-.3 0-1.2.3-3 .3-3 0-7.9-.7-13.9-1.6-6-1-13.3-2-21.4-2a86.4 86.4 0 0 0-23.2 3.2 87 87 0 0 0-23.2-3.1c-8.1 0-15.3 1-21.4 1.9-6 .9-11 1.6-13.8 1.6-1.9 0-2.8-.2-3-.3a81 81 0 0 1-14.8-9c-2.9-2-5.8-4.4-8.8-6.8l4.6-4.8L125.8 79 0 209.2l49.9 49.9L64.5 244l32.2 28c.9 5.5 2.6 10.6 4.5 15.4a118.9 118.9 0 0 0 4.1 8.8c-3 5.2-4.8 11-4.8 17a32.8 32.8 0 0 0 5 17.4c5 8.1 13.2 13.3 22 14.9a32.8 32.8 0 0 0 5 17c6.2 10 17 15.6 28 15.5h1.2a32.9 32.9 0 0 0 32.6 29l3.3-.2a30 30 0 0 0 4.3 12.1 30 30 0 0 0 25.4 14.1 29.9 29.9 0 0 0 15.8-4.5l15-9.3a50 50 0 0 0 28.6 9 38 38 0 0 0 33.3-19l1.3.2a33.5 33.5 0 0 0 9.9-1.5c3.4-1 6.7-2.6 10.3-4.7a37.2 37.2 0 0 0 17.5-21.8c2.1-.6 4.1-1.4 5.9-2.5 6.6-3.8 11-9.6 13.6-15.4 2.7-5.9 3.8-12 3.9-17.9l-.1-1.7a41.3 41.3 0 0 0 11.5-7.1c3.4-3 6.3-6.5 8.4-10.4 2-4 3.5-8.5 3.5-13.4a23.6 23.6 0 0 0-2-9.8c-.5-1-1.2-1.9-1.8-2.8 2.5-4.6 5.1-9.7 7.2-15.2 1.6-4.1 3-8.5 3.7-13.1l33.6-29.3 15.7 16.3 49.9-49.9L386.2 79zM138.7 320.4l-.5.4a8.9 8.9 0 0 1-4.7 1.3 9 9 0 0 1-4.8-16.5l19.8-12.3a8.9 8.9 0 0 1 4.7-1.3c3 0 5.9 1.5 7.6 4.2l10.1-6.3-10.1 6.3a8.8 8.8 0 0 1 1.3 4.7 9 9 0 0 1-2.1 5.8l-17 10.5c-1.5 1-3 2-4.3 3.2zm26.4 32.3a9 9 0 0 1-12.3-2.9 9 9 0 0 1-1.4-4.6 9 9 0 0 1 2.2-5.8l17-10.5c1.5-1 2.9-2 4.2-3.2l.6-.4a8.8 8.8 0 0 1 4.7-1.4c3 0 6 1.5 7.6 4.3a8.9 8.9 0 0 1 1.4 4.7c0 3-1.5 5.9-4.3 7.6l-19.7 12.2zm53.7 16.7L199 381.7a8.8 8.8 0 0 1-4.7 1.3 9 9 0 0 1-7.6-4.2 9 9 0 0 1-1.3-4.7 9 9 0 0 1 4.2-7.6l19.7-12.3a8.7 8.7 0 0 1 4.7-1.3c3 0 6 1.5 7.7 4.2a8.9 8.9 0 0 1 1.3 4.7 9 9 0 0 1-4.2 7.6zm30.6 20c.6 1 .8 2 .9 3.2 0 2-1 3.9-2.9 5l-17 10.6a5.8 5.8 0 0 1-3 .9c-2.1 0-4-1-5.2-2.8a6 6 0 0 1-.9-3.2c0-2 1-4 2.8-5l17-10.6c1-.7 2-1 3.1-1 2 0 4 1 5.1 2.9l10.2-6.3-10.1 6.3zM381 315.1c-.9 1.6-2.9 3.8-5.4 5.4a15.9 15.9 0 0 1-8.2 2.4c-1 0-2 .2-3 .4a33 33 0 0 1-5-1.5c-5.2-2-10-5.3-13.5-8.1a63.8 63.8 0 0 1-4-3.5l-1-1-.3-.3a9 9 0 0 0-13.2 12.2c.3.3 4.8 5.2 12.2 10.3a66.6 66.6 0 0 0 16.9 8.4c.3.8.8 1.5 1.3 2.2 0 .1.5 1.6.5 3.6 0 3.3-1.1 7.7-2.9 10a8 8 0 0 1-2.5 2.5c-.9.5-1.7.8-3.4.8h-1.5c-7.8.1-15.1-3.2-20.4-6.9a51.3 51.3 0 0 1-6.3-5 53.5 53.5 0 0 1-1.6-1.5l-.3-.4a9 9 0 0 0-12.7-1 9 9 0 0 0-1 12.7c.4.4 4.5 5.2 11.8 10 4.7 3.3 10.9 6.6 18.3 8.5l-.3.7a13 13 0 0 1-6 6.4 27.4 27.4 0 0 1-5.4 2.6 9 9 0 0 1-2.9.4c-1.1 0-2.9-.2-5.8-.8l-1.6-.2-.6-.2c-3-1.4-6.6-4-9.3-6.1a80.9 80.9 0 0 1-3.2-2.8l-.9-.8-.2-.2a9 9 0 0 0-12.5 13c.2.2 4 3.8 9.3 7.6a79.8 79.8 0 0 0 3 2 14 14 0 0 1-12.8 7.4c-3 0-6.5-.7-10-2.2-1.2-.5-2.4-1.2-3.5-1.8.6-2.5 1-5.1 1-7.7a29.9 29.9 0 0 0-4.5-15.8 29.9 29.9 0 0 0-22.8-14v-1a32.9 32.9 0 0 0-4.9-17.3 32.9 32.9 0 0 0-28-15.6l-1.2.1a32.8 32.8 0 0 0-26.7-28.4 32.8 32.8 0 0 0-5-17 33 33 0 0 0-28-15.6 33 33 0 0 0-17.3 5l-11.5 7.2-1-2c-2-4.7-3.2-9.5-3.3-12.7l-.3-5.1-38.6-33.7 73.2-75.8c3.7 3 7.6 6.1 11.5 9 6.5 4.7 13 8.8 19.6 11.6 4.2 1.7 8.4 2.2 12.2 2.2 6 0 11.6-1 17.4-2h1.1c-8 6.7-14.9 14.1-20.8 21a292 292 0 0 0-12.4 15.8l-7 9.5c-5.4 7-7.7 15.5-7.7 24 0 8 2 16.2 7.5 23.1a30 30 0 0 0 10.7 8.5c4.3 2 9.2 3.1 14.3 3.1 6.4 0 13-1.5 20.1-4.5a373 373 0 0 1 83.1-23.6l2.5-.4 75.3 64.9c0 .3 0 1-.6 2zm8.7-54.7l-.3 5c-.1 3-1.1 7-2.8 11.3-.8 2.2-1.8 4.4-2.9 6.6l-66-56.8a12 12 0 0 0-9.2-2.8c-.6 0-49 6.1-97 26.4-4.9 2-8.5 2.7-10.9 2.7a9 9 0 0 1-4-.8 6.7 6.7 0 0 1-3.1-3.2c-1-1.7-1.5-4.2-1.5-6.8 0-3.7 1.3-7.5 2.8-9.3 1.9-2.4 4.1-5.7 7.3-10 4.6-6.3 11-14.4 18.5-22.4 7.5-8 16.3-15.6 25.5-21 12.4-7.3 23-9.1 33-9.2 6.2 0 12 .8 17.9 1.7 5.7.8 11.3 1.8 17.4 1.9 3.7 0 7.9-.5 12-2.2h.1c6.6-2.8 13.1-7 19.6-11.6 4-2.9 7.8-6 11.5-9l72 74.6-40 34.9z" fill="#f25858"/></svg>